<?xml version="1.0" standalone="no"?>
<!DOCTYPE svg PUBLIC "-//W3C//DTD SVG 20010904//EN"
 "http://www.w3.org/TR/2001/REC-SVG-20010904/DTD/svg10.dtd">
<svg version="1.0" xmlns="http://www.w3.org/2000/svg"
 width="200.000000pt" height="200.000000pt" viewBox="0 0 200.000000 200.000000"
 preserveAspectRatio="xMidYMid meet">

<g transform="translate(0.000000,200.000000) scale(0.100000,-0.100000)"
fill="#000000" stroke="none">
<path d="M250 704 c-1 -41 -28 -232 -34 -243 -4 -6 -1 -11 7 -11 14 0 27 64
27 141 0 20 3 39 8 43 4 4 28 -36 53 -91 l47 -98 27 60 c15 33 36 80 48 105
l20 45 8 -45 c4 -25 8 -71 10 -102 2 -49 5 -58 21 -58 11 0 17 4 14 8 -2 4
-10 57 -17 117 -6 61 -15 116 -18 123 -4 7 -27 -33 -56 -98 -27 -61 -52 -107
-56 -103 -3 5 -28 55 -54 113 -53 118 -55 121 -55 94z"/>
<path d="M851 619 c-6 -57 -16 -119 -20 -136 -7 -25 -6 -33 4 -33 12 0 25 81
25 156 0 19 4 34 8 34 5 0 29 -44 54 -97 42 -92 46 -96 56 -73 6 14 27 61 48
105 l38 80 7 -50 c4 -27 8 -74 8 -102 1 -44 4 -53 19 -53 17 0 17 5 5 98 -7
53 -16 113 -19 132 l-6 35 -19 -40 c-11 -22 -35 -74 -53 -115 l-35 -75 -24 55
c-14 30 -39 84 -55 119 l-29 65 -12 -105z"/>
<path d="M576 658 c51 -58 74 -107 74 -158 0 -38 4 -50 15 -50 11 0 15 12 15
48 0 40 7 59 44 115 33 51 40 67 28 66 -10 0 -28 -24 -46 -60 -16 -32 -32 -59
-35 -59 -11 0 -62 100 -56 110 4 6 -7 10 -26 10 l-32 0 19 -22z"/>
<path d="M1198 565 l3 -116 66 3 c49 2 68 7 71 18 4 12 2 13 -9 2 -7 -6 -35
-12 -62 -12 l-48 0 3 48 3 47 43 0 c23 0 42 3 42 8 0 4 -20 7 -46 7 l-45 0 3
48 3 47 53 0 c28 0 52 3 52 8 0 4 -30 7 -67 7 l-68 0 3 -115z"/>
<path d="M1405 565 l0 -115 73 0 c115 0 152 28 152 115 0 38 -5 52 -29 76 -16
16 -38 29 -48 29 -14 -1 -12 -4 9 -15 52 -29 61 -124 16 -172 -18 -19 -32 -23
-85 -23 l-63 0 0 104 0 105 53 4 c51 3 50 3 -13 5 l-65 2 0 -115z"/>
<path d="M1695 656 c-23 -35 -12 -59 46 -101 35 -26 49 -44 49 -60 0 -45 -68
-61 -94 -23 -16 22 -16 22 -16 1 0 -36 77 -46 110 -13 34 34 26 65 -29 107
-55 42 -69 66 -51 88 15 18 61 19 79 3 11 -11 13 -10 9 2 -3 9 -20 16 -46 18
-34 3 -43 -1 -57 -22z"/>
</g>
</svg>
