<?xml version="1.0" standalone="no"?>
<!DOCTYPE svg PUBLIC "-//W3C//DTD SVG 20010904//EN"
 "http://www.w3.org/TR/2001/REC-SVG-20010904/DTD/svg10.dtd">
<svg version="1.0" xmlns="http://www.w3.org/2000/svg"
 width="200.000000pt" height="200.000000pt" viewBox="0 0 200.000000 200.000000"
 preserveAspectRatio="xMidYMid meet">

<g transform="translate(0.000000,200.000000) scale(0.100000,-0.100000)"
fill="#000000" stroke="none">
<path d="M337 1496 c-76 -18 -142 -37 -146 -42 -5 -5 -43 -64 -85 -132 l-76
-123 35 -151 c19 -84 41 -156 48 -160 62 -42 110 -49 127 -19 14 28 15 27 -40
57 l-50 27 0 166 0 166 145 83 144 83 143 -83 143 -83 3 -165 2 -165 -145 -83
-145 -84 -55 32 c-31 18 -58 31 -59 29 -22 -26 -25 -51 -10 -74 29 -45 40 -45
199 -8 83 19 151 35 151 36 6 7 145 229 153 245 9 16 4 50 -19 149 -16 70 -32
138 -35 149 -3 15 -48 49 -135 103 -72 44 -136 81 -143 80 -6 0 -74 -15 -150
-33z"/>
<path d="M313 1324 l-113 -66 0 -138 0 -138 115 -66 c63 -36 119 -66 125 -66
5 0 62 30 125 66 l115 67 0 137 0 136 -116 67 c-63 37 -121 67 -127 66 -7 0
-63 -29 -124 -65z m37 -75 c10 -44 80 -33 80 12 0 20 15 26 25 9 3 -5 -3 -18
-15 -30 -26 -26 -25 -36 4 -55 26 -18 52 -11 67 16 6 12 21 19 38 19 23 0 31
6 40 30 5 17 15 30 20 30 18 0 12 -26 -9 -45 -17 -16 -18 -20 -5 -45 12 -23
12 -30 -1 -48 -8 -11 -26 -22 -41 -24 -25 -3 -36 -14 -48 -52 -4 -14 -9 -16
-17 -8 -8 8 -5 18 11 38 20 25 20 28 5 46 -22 24 -50 23 -71 -2 -10 -11 -24
-20 -33 -20 -38 -1 -70 -59 -44 -81 8 -6 26 -8 44 -4 24 5 30 3 30 -10 0 -13
-7 -15 -34 -10 -28 6 -36 3 -45 -14 -13 -23 0 -61 20 -61 6 0 9 -6 7 -12 -6
-18 -33 -16 -33 2 -1 26 -15 40 -40 40 -35 0 -62 43 -47 75 7 14 20 25 30 25
30 0 59 27 56 52 -1 13 -3 27 -3 31 -1 5 -17 7 -38 5 -24 -2 -38 2 -41 11 -3
10 3 12 27 6 55 -12 82 33 41 70 -11 10 -17 22 -14 27 10 15 28 3 34 -23z"/>
<path d="M352 1186 c-9 -20 -8 -28 4 -41 19 -18 60 -20 66 -2 19 52 -47 93
-70 43z"/>
<path d="M520 1195 c-7 -8 -10 -25 -6 -40 5 -20 13 -25 36 -25 23 0 31 5 36
25 7 29 -10 55 -36 55 -10 0 -23 -7 -30 -15z"/>
<path d="M270 1045 c-10 -12 -10 -21 -2 -40 14 -29 49 -33 68 -7 17 22 17 27
-2 46 -20 20 -48 20 -64 1z"/>
</g>
</svg>
