<?xml version="1.0" standalone="no"?>
<!DOCTYPE svg PUBLIC "-//W3C//DTD SVG 20010904//EN"
 "http://www.w3.org/TR/2001/REC-SVG-20010904/DTD/svg10.dtd">
<svg version="1.0" xmlns="http://www.w3.org/2000/svg"
 width="80.000000pt" height="80.000000pt" viewBox="0 0 80.000000 80.000000"
 preserveAspectRatio="xMidYMid meet">

<g transform="translate(0.000000,80.000000) scale(0.100000,-0.100000)"
fill="#ffffff" stroke="none">
<path d="M305 762 l-151 -35 -77 -123 c-52 -84 -77 -134 -77 -155 0 -25 39
-213 56 -270 6 -23 78 -69 107 -69 15 0 29 9 37 25 7 14 11 27 9 29 -2 1 -25
15 -51 30 l-48 28 0 163 0 163 142 82 c78 44 146 79 153 78 6 -2 72 -39 148
-82 l137 -80 0 -162 0 -162 -137 -78 c-76 -44 -143 -80 -149 -82 -6 -2 -35 11
-63 27 l-51 30 -15 -23 c-13 -19 -13 -29 -4 -49 22 -48 44 -51 170 -22 204 47
177 29 268 175 l81 130 -30 132 c-17 73 -34 142 -39 154 -7 16 -114 90 -246
169 -16 10 -47 6 -170 -23z"/>
<path d="M278 593 l-118 -67 0 -140 0 -141 120 -69 119 -68 93 53 c51 29 105
61 121 71 l27 19 0 134 0 134 -27 19 c-31 21 -208 122 -214 122 -2 0 -57 -30
-121 -67z m32 -72 c0 -22 19 -41 43 -41 11 0 23 13 33 36 11 27 18 34 27 25 8
-8 5 -17 -11 -34 -43 -46 16 -91 62 -48 12 11 31 21 42 21 25 0 44 18 44 41 0
25 19 34 27 13 4 -10 0 -20 -11 -26 -14 -8 -16 -18 -11 -48 9 -52 -7 -80 -46
-80 -25 0 -30 -5 -35 -30 -4 -16 -13 -30 -20 -30 -18 0 -18 18 1 36 21 21 19
47 -6 62 -17 11 -25 11 -45 -3 -13 -8 -24 -20 -24 -25 0 -6 -9 -10 -19 -10
-39 0 -51 -11 -51 -46 0 -39 22 -54 50 -36 19 12 30 6 30 -14 0 -9 -12 -13
-36 -11 -51 3 -67 -23 -35 -56 16 -17 19 -27 11 -32 -7 -4 -17 -2 -23 4 -6 6
-8 11 -4 11 4 0 3 9 -3 20 -7 12 -21 20 -38 20 -60 0 -64 95 -4 102 33 4 55
43 40 71 -5 11 -17 17 -26 14 -10 -2 -23 -6 -31 -8 -8 -2 -17 4 -19 14 -3 16
1 17 33 11 51 -9 74 26 39 61 -9 8 -13 22 -10 31 7 19 26 9 26 -15z"/>
<path d="M310 450 c-8 -16 -6 -24 10 -40 31 -31 54 -22 58 23 3 35 2 37 -27
37 -20 0 -34 -7 -41 -20z"/>
<path d="M474 445 c-7 -29 10 -55 36 -55 26 0 43 26 36 55 -5 20 -13 25 -36
25 -23 0 -31 -5 -36 -25z"/>
<path d="M230 310 c-15 -28 4 -60 35 -60 35 0 52 36 29 61 -22 25 -50 24 -64
-1z"/>
</g>
</svg>
